<?xml version="1.0" encoding="utf-8"?>
<!-- Generator: Adobe Illustrator 27.5.0, SVG Export Plug-In . SVG Version: 6.00 Build 0)  -->
<svg version="1.1" xmlns="http://www.w3.org/2000/svg" xmlns:xlink="http://www.w3.org/1999/xlink" x="0px" y="0px"
	 viewBox="0 0 500 500" style="enable-background:new 0 0 500 500;" xml:space="preserve">
<g id="BACKGROUND">
	<rect style="fill:#F2F3FC;" width="500" height="500"/>
</g>
<g id="OBJECTS">
	<g>
		<g>
			<linearGradient id="SVGID_1_" gradientUnits="userSpaceOnUse" x1="368.0067" y1="421.1575" x2="93.823" y2="146.9739">
				<stop  offset="0" style="stop-color:#D2D5FB"/>
				<stop  offset="1" style="stop-color:#EFEEFF"/>
			</linearGradient>
			<path style="fill:url(#SVGID_1_);" d="M108.638,416.59c-19.593-5.208-39.855-10.753-55.48-23.67
				c-15.625-12.917-25.277-35.418-17.142-53.987c6.731-15.365,23.004-23.729,37.509-32.154s29.695-20.253,31.148-36.965
				c1.402-16.129-10.467-29.906-20.044-42.96c-9.578-13.053-37.74-85.56,63.409-72.716c46.598,5.917,61.337-25.42,66.285-34.088
				c13.607-23.835,44.175-32.428,71.614-31.831c15.284,0.332,30.892,2.953,44.105,10.642s23.723,21.088,25.083,36.315
				c1.589,17.79-8.974,36.293-2.499,52.939c5.403,13.891,20.867,21.035,35.473,24.004c14.606,2.969,30.035,3.257,43.498,9.651
				c14.803,7.03,25.64,21.018,30.921,36.531c5.281,15.513,5.391,32.431,2.616,48.581c-8.094,47.115-41.795,89.016-86.079,107.023
				L108.638,416.59z"/>
		</g>
		<path style="fill:#B2BAED;" d="M445.334,413.923H52.365c-2.073,0-3.769,1.696-3.769,3.769l0,0c0,2.073,1.696,3.769,3.769,3.769
			h392.969c2.073,0,3.769-1.696,3.769-3.769l0,0C449.103,415.619,447.407,413.923,445.334,413.923z"/>
		<g>
			<path style="fill:#B2BAED;" d="M403.441,228.203l4.005-44.176h-36.744l5.568-55.406l-46.024,0.028l-5.565,55.378H205.822
				l5.568-55.406l-46.024,0.028l-5.565,55.378h-37.147l-4.005,44.176h36.714l-10.858,86.677h-33.946l-5.069,43.971h36.744
				l-5.568,55.406l46.023-0.028l5.565-55.378h118.86l-5.567,55.406l46.023-0.028l5.565-55.378h37.148l4.005-44.176h-36.714
				l8.689-86.472H403.441z M311.553,314.675H192.694l8.689-86.472h118.859L311.553,314.675z"/>
			<g>
				<g>
					<polygon style="fill:#FFA683;" points="136.969,408.873 136.969,397.899 129.419,397.899 129.419,411.068 					"/>
					
						<linearGradient id="SVGID_00000038371368134372806180000005701339029097562273_" gradientUnits="userSpaceOnUse" x1="113.0888" y1="411.507" x2="136.969" y2="411.507">
						<stop  offset="0.207" style="stop-color:#04293F"/>
						<stop  offset="0.444" style="stop-color:#0A3753"/>
						<stop  offset="1" style="stop-color:#185B84"/>
					</linearGradient>
					<path style="fill:url(#SVGID_00000038371368134372806180000005701339029097562273_);" d="M136.969,408.873
						c0,0.263,0,6.936,0,6.936h-23.88c0,0,0.088-1.229,1.317-2.107c1.229-0.878,15.013-6.497,15.013-6.497l2.283,2.371
						L136.969,408.873z"/>
					<polygon style="fill:#FFA683;" points="159.167,384.807 152.517,376.077 146.511,380.652 154.49,391.128 					"/>
					
						<linearGradient id="SVGID_00000148652757986664458460000003997557064954015908_" gradientUnits="userSpaceOnUse" x1="143.9913" y1="394.8008" x2="163.3696" y2="394.8008">
						<stop  offset="0.207" style="stop-color:#04293F"/>
						<stop  offset="0.444" style="stop-color:#0A3753"/>
						<stop  offset="1" style="stop-color:#185B84"/>
					</linearGradient>
					<path style="fill:url(#SVGID_00000148652757986664458460000003997557064954015908_);" d="M159.167,384.807
						c0.16,0.21,4.203,5.517,4.203,5.517l-18.997,14.47c0,0-0.675-1.031-0.229-2.474c0.446-1.443,8.006-14.265,8.006-14.265
						l3.252,0.503L159.167,384.807z"/>
					
						<linearGradient id="SVGID_00000120544578171227043000000012740105593277792941_" gradientUnits="userSpaceOnUse" x1="128.3546" y1="348.9899" x2="162.1499" y2="348.9899">
						<stop  offset="0.207" style="stop-color:#04293F"/>
						<stop  offset="0.444" style="stop-color:#0A3753"/>
						<stop  offset="1" style="stop-color:#185B84"/>
					</linearGradient>
					<path style="fill:url(#SVGID_00000120544578171227043000000012740105593277792941_);" d="M137.558,405.604l-9.204-0.096
						l13.942-113.134h19.838C162.851,307.291,137.558,405.604,137.558,405.604z"/>
					
						<linearGradient id="SVGID_00000030482797762447972450000008451115468452721330_" gradientUnits="userSpaceOnUse" x1="114.6726" y1="338.8524" x2="154.6807" y2="338.8524">
						<stop  offset="0.207" style="stop-color:#04293F"/>
						<stop  offset="0.444" style="stop-color:#0A3753"/>
						<stop  offset="1" style="stop-color:#185B84"/>
					</linearGradient>
					<path style="fill:url(#SVGID_00000030482797762447972450000008451115468452721330_);" d="M144.549,292.378
						c0,0-10.362,35.082-13.614,42.618l23.746,42.526l-6.969,7.805c0,0-33.322-45.549-33.037-49.254
						c0.172-2.243,7.92-43.694,7.92-43.694H144.549z"/>
					<path style="fill:#091C23;" d="M151.593,282.44C151.871,280.963,151.914,280.714,151.593,282.44L151.593,282.44z"/>
					<path style="fill:#091C23;" d="M132.86,282.44C132.538,280.714,132.582,280.963,132.86,282.44L132.86,282.44z"/>
					
						<linearGradient id="SVGID_00000093862041435052982050000005197404646646720183_" gradientUnits="userSpaceOnUse" x1="140.5901" y1="290.4279" x2="148.1144" y2="200.1353">
						<stop  offset="0" style="stop-color:#D028BB"/>
						<stop  offset="1" style="stop-color:#974EF4"/>
					</linearGradient>
					<path style="fill:url(#SVGID_00000093862041435052982050000005197404646646720183_);" d="M148.367,224.79l-10.507,0.796
						c-19.263,0.955-29.769,25.949-29.769,25.949l9.87,10.029l5.371-5.698l-1.869,36.422l41.389,0.092l-1.211-39.386l4.127,6.37
						l13.816-7.985C179.584,251.38,167.057,225.626,148.367,224.79"/>
					<polygon style="fill:#29ABE2;" points="122.512,292.645 122.264,292.645 122.283,292.233 					"/>
					<g>
						<path style="fill:#04293F;" d="M131.322,202.521c0,0-2.976-16.382,9.606-14.325c0,0,9.466-3.998,14.846,3.586
							c3.907,5.509,4.646,21.012-5.363,24.459C143.888,218.488,131.322,202.521,131.322,202.521z"/>
						<path style="fill:#FFA683;" d="M152.335,210.069c0,6.532-4.69,10.729-10.475,10.729s-10.475-4.197-10.475-10.729v-7.615
							c0,0,5.481,0.344,8.621-4.574c0,0,2.276,3.956,12.276,5.599L152.335,210.069z"/>
						<path style="fill:#FFA683;" d="M149.112,207.046c0-1.975,1.601-3.576,3.576-3.576c1.975,0,3.576,1.601,3.576,3.576
							s-1.601,3.576-3.576,3.576C150.713,210.623,149.112,209.021,149.112,207.046z"/>
						<path style="fill:#F78B6B;" d="M148.572,218.495v4.507c0,1.265-0.57,2.459-1.559,3.251l-5.612,4.507l-2.779-2.779
							c-0.784-0.775-1.22-1.835-1.22-2.94v-5.167c1.354,0.597,2.859,0.918,4.454,0.918
							C144.412,220.793,146.755,219.974,148.572,218.495z"/>
					</g>
					<path style="fill:#FFA683;" d="M116.962,260.441c0,0-10.463,16.293-16.62,12.919c-7.744-4.244-9.285-37.109-9.285-37.109
						l5.253-1.91c0,0,5.572,26.745,6.368,27.063c0.796,0.318,5.413-9.87,5.413-9.87L116.962,260.441z"/>
					<path style="fill:#04293F;" d="M91.326,220.093h6.785c1.155,0,2.1,0.945,2.1,2.1v15.262c0,1.155-0.945,2.1-2.1,2.1h-6.785
						c-1.155,0-2.1-0.945-2.1-2.1v-15.262C89.226,221.038,90.171,220.093,91.326,220.093z"/>
					<path style="fill:#FFA683;" d="M90.958,225.824L90.958,225.824c1.806,0,3.283,1.477,3.283,3.283v5.373
						c0,1.806-1.478,3.283-3.283,3.283l0,0c-1.806,0-3.283-1.478-3.283-3.283v-5.373C87.674,227.302,89.152,225.824,90.958,225.824z
						"/>
					<path style="fill:#091C23;" d="M122.42,290.1"/>
					<path style="fill:#FFA683;" d="M162.09,292.291l-0.449,7.85l23.685-29.876c-0.679-3.948-4.052-13.072-7.397-17.832
						l-11.232,6.128l8.402,11.166L162.09,292.291z"/>
				</g>
				<g>
					
						<linearGradient id="SVGID_00000093889942858668670640000008470637222239813775_" gradientUnits="userSpaceOnUse" x1="70.5211" y1="183.7022" x2="127.0404" y2="183.7022">
						<stop  offset="0" style="stop-color:#FF7867"/>
						<stop  offset="1" style="stop-color:#FFCA46"/>
					</linearGradient>
					<path style="fill:url(#SVGID_00000093889942858668670640000008470637222239813775_);" d="M117.757,202.855
						c5.702-5.17,9.283-12.636,9.283-20.939c0-15.607-12.652-28.26-28.26-28.26c-15.607,0-28.26,12.652-28.26,28.26
						s12.652,28.26,28.26,28.26c3.737,0,7.3-0.732,10.565-2.049l9.935,5.622L117.757,202.855z"/>
					<path style="fill:#FFFFFF;" d="M110.64,178.106l0.347-3.831h-3.186l0.483-4.805l-3.991,0.002l-0.482,4.802H93.503l0.483-4.805
						l-3.991,0.002l-0.483,4.802h-3.221l-0.347,3.831h3.184l-0.942,7.516h-2.944l-0.44,3.813h3.186l-0.483,4.805l3.991-0.002
						l0.483-4.802h10.307l-0.483,4.805l3.991-0.002l0.483-4.802h3.221l0.347-3.831h-3.184l0.754-7.499H110.64z M102.672,185.605
						H92.364l0.753-7.499h10.307L102.672,185.605z"/>
				</g>
			</g>
			<g>
				<g>
					
						<linearGradient id="SVGID_00000121239287615502504060000004053775101724690360_" gradientUnits="userSpaceOnUse" x1="328.4228" y1="406.4196" x2="288.556" y2="360.0122">
						<stop  offset="0.207" style="stop-color:#04293F"/>
						<stop  offset="0.444" style="stop-color:#0A3753"/>
						<stop  offset="1" style="stop-color:#185B84"/>
					</linearGradient>
					<path style="fill:url(#SVGID_00000121239287615502504060000004053775101724690360_);" d="M372.986,391.181
						c0,0-47.838-32.839-53.798-32.094c-5.96,0.745-47.493,51.963-47.493,51.963h13.224l36.092-30.689
						c0,0,27.265,34.511,39.558,32.462c12.292-2.049,22.174-13.836,22.174-13.836L372.986,391.181z"/>
					
						<linearGradient id="SVGID_00000043435399108561746350000017595558816619098497_" gradientUnits="userSpaceOnUse" x1="228.8066" y1="415.6795" x2="424.9409" y2="396.1163">
						<stop  offset="0.207" style="stop-color:#04293F"/>
						<stop  offset="1" style="stop-color:#185B84"/>
					</linearGradient>
					<path style="fill:url(#SVGID_00000043435399108561746350000017595558816619098497_);" d="M386.175,399.378
						c0,0-8.692,17.135-26.571,15.893l-111.252-1.987l-0.781-9.953l103.838-12.894l21.853,2.483L386.175,399.378z"/>
					<path style="fill:#F4D1AE;" d="M269.211,398.384"/>
					<path style="fill:#FFA683;" d="M397.971,412.539c0,0,1.738,4.594,5.96,5.836s14.527,3.104,13.906,0.993
						c-0.621-2.111-10.182-6.581-10.182-6.581L397.971,412.539z"/>
					<g>
						
							<linearGradient id="SVGID_00000168825800340295395190000014119100885554856848_" gradientUnits="userSpaceOnUse" x1="231.0262" y1="400.7021" x2="245.0837" y2="400.7021">
							<stop  offset="0.207" style="stop-color:#04293F"/>
							<stop  offset="0.444" style="stop-color:#0A3753"/>
							<stop  offset="1" style="stop-color:#185B84"/>
						</linearGradient>
						<path style="fill:url(#SVGID_00000168825800340295395190000014119100885554856848_);" d="M244.539,405.92
							c0,0-7.471-18.656-11.945-18.097c-4.474,0.559,1.944,25.151,2.977,25.488c1.862,0.606,9.512,0.051,9.512,0.051L244.539,405.92
							z"/>
						<polygon style="fill:#FFA683;" points="248.356,413.286 245.086,413.362 244.538,405.924 247.76,405.688 						"/>
					</g>
					<path style="fill:#FFA683;" d="M321.874,347.638l-7.03-10.529c-0.612-0.769-1.745-0.865-2.477-0.209l0,0
						c-1.99,1.78-2.637,4.632-1.581,7.085c1.056,2.453,3.36,6.649,5.171,7.947L321.874,347.638z"/>
					<path style="fill:#04293F;" d="M310.839,326.145l-5.819,0.663c-0.845,0.096-1.27,0.735-0.946,1.42l7.237,15.292
						c0.324,0.685,1.28,1.167,2.125,1.07l5.819-0.663c1.356-0.155,1.253-0.691,0.946-1.42l-7.237-15.293
						C312.64,326.53,311.683,326.048,310.839,326.145z"/>
					<path style="fill:#FFA683;" d="M320.402,345.741l0.459-4.544c0.245-0.834-0.168-1.72-0.964-2.068l-1.76-0.769
						c-0.526-0.23-1.14-0.028-1.426,0.469l0,0c-0.324,0.561-0.108,1.279,0.471,1.569l0.822,0.412l0.835,0.405l-1.212,2.945
						L320.402,345.741z"/>
					
						<linearGradient id="SVGID_00000168798076864628912260000006289644196051890828_" gradientUnits="userSpaceOnUse" x1="315.1524" y1="355.6406" x2="368.916" y2="355.6406">
						<stop  offset="0" style="stop-color:#76FEFF"/>
						<stop  offset="0.9636" style="stop-color:#48CBFF"/>
					</linearGradient>
					<path style="fill:url(#SVGID_00000168798076864628912260000006289644196051890828_);" d="M368.916,330.28
						c0,0-6.084,2.421-11.299,10.865c-1.89,3.06-8.381,22.722-8.381,22.722l-27.627-17.631l-6.457,6.208
						c0,0,34.828,28.558,43.954,28.558C368.233,381.001,368.916,330.28,368.916,330.28z"/>
					
						<linearGradient id="SVGID_00000047043698378588184310000017353538844437069206_" gradientUnits="userSpaceOnUse" x1="379.3924" y1="408.2575" x2="381.7332" y2="296.8972">
						<stop  offset="0.0364" style="stop-color:#48CBFF"/>
						<stop  offset="1" style="stop-color:#76FEFF"/>
					</linearGradient>
					<path style="fill:url(#SVGID_00000047043698378588184310000017353538844437069206_);" d="M369.537,330.094
						c0,0-6.953,2.359-8.319,9.933c-1.366,7.574-4.346,42.713-9.809,50.411c0,0,21.605,11.423,34.766,8.94l7.822-25.206
						l3.973,38.367l9.685,0.248c0,0-2.607-70.029-10.554-76.486c-7.947-6.457-17.383-7.698-17.383-7.698L369.537,330.094z"/>
					<path style="opacity:0.42;fill:#21A4CC;" d="M389.403,344.186c0,0,4.415,40.719-12.419,55.137
						c3.251,0.478,6.41,0.579,9.191,0.054l7.822-25.206C393.997,374.172,392.569,348.284,389.403,344.186z"/>
					<path style="fill:#073456;" d="M356.889,309.605c0,0-6.114-0.99-6.624-6.308c-0.51-5.318,4.735-10.563,7.139-10.781
						c0,0-1.093,5.172,3.497,3.715c4.589-1.457,12.675-4.662,16.609-2.258c3.934,2.404,17.775,12.675,2.113,30.086l-15.152-8.693
						L356.889,309.605z"/>
					<path style="fill:#FFA683;" d="M356.889,309.605c0,0-2.587,21.216,13.454,15.524l-0.482,5.632c0,0,1.894,5.828,3.788,5.099
						c1.894-0.728,5.974-6.702,5.974-6.702v-12.238l-5.099-8.887l-6.41-2.331C368.113,305.701,360.671,309.138,356.889,309.605z"/>
					<path style="fill:#FFA683;" d="M381.881,313.896c0-2.193-1.778-3.97-3.97-3.97c-2.193,0-3.97,1.778-3.97,3.97
						c0,2.193,1.777,3.97,3.97,3.97C380.103,317.866,381.881,316.089,381.881,313.896z"/>
				</g>
				<g>
					
						<linearGradient id="SVGID_00000107553770866673092040000012401080911512122559_" gradientUnits="userSpaceOnUse" x1="368.1026" y1="242.5009" x2="433.5849" y2="242.5009">
						<stop  offset="0" style="stop-color:#D028BB"/>
						<stop  offset="1" style="stop-color:#974EF4"/>
					</linearGradient>
					<path style="fill:url(#SVGID_00000107553770866673092040000012401080911512122559_);" d="M378.858,264.692
						c-6.606-5.99-10.755-14.64-10.755-24.26c0-18.082,14.659-32.741,32.741-32.741s32.741,14.659,32.741,32.741
						s-14.659,32.741-32.741,32.741c-4.329,0-8.458-0.848-12.241-2.374l-11.511,6.513L378.858,264.692z"/>
					<path style="fill:#FFFFFF;" d="M413.588,236.889l0.383-4.226h-3.515l0.533-5.3l-4.403,0.003l-0.532,5.298h-11.371l0.533-5.3
						l-4.403,0.003l-0.532,5.298h-3.554l-0.383,4.226h3.512l-1.039,8.292h-3.247l-0.485,4.206h3.515l-0.533,5.3l4.403-0.003
						l0.532-5.298h11.371l-0.533,5.3l4.403-0.003l0.532-5.298h3.554l0.383-4.226H409.2l0.831-8.272H413.588z M404.798,245.162
						h-11.371l0.831-8.272h11.371L404.798,245.162z"/>
				</g>
			</g>
			<g>
				<g>
					<path style="fill:#04293F;" d="M268.855,255.016c-0.695-2.548-1.941-3.342-3.252-3.333c-1.31-0.01-2.557,0.785-3.252,3.333
						c-1.929,7.074,1.271,20.055,3.112,20.182c0.047,0.003,0.093-0.006,0.14-0.013c0.047,0.007,0.093,0.016,0.14,0.013
						C267.583,275.07,270.783,262.09,268.855,255.016z"/>
					<path style="fill:#04293F;" d="M296.045,238.717l2.317,10.184l2.378-0.687l0.316-3.964c0,0,5.316,1.954,6.768,1.922
						c1.452-0.032,11.242-3.25,11.242-3.25s-0.967-1.66-1.823-1.671c-0.856-0.011-12.795-0.438-15.145-3.509L296.045,238.717z"/>
					<path style="fill:#FFA683;" d="M301.688,236.167l0.409,1.576l3.966,2.116c0,0-8.65,0.161-10.019-1.142l-1.46-5.051
						L301.688,236.167z"/>
					<path style="fill:#FFA683;" d="M262.018,255.876c0,0,2.128,7.025,3.712,6.798c1.67-0.238,3.181-7.061,3.181-7.061
						L262.018,255.876z"/>
					<path style="fill-rule:evenodd;clip-rule:evenodd;fill:#073456;" d="M273.098,108.658c-0.348-3.404-1.603-5.804-3.111-7.488
						c-2.492-2.784-6.628-3.437-10.253-2.588c-3.625-0.85-7.249-0.196-9.741,2.588c-1.508,1.684-2.762,4.084-3.111,7.488
						c-1.031,10.075-6.582,21.517-4.739,24.49c2.308,3.723,11.321,2.325,17.847,0.182c6.526,2.142,15.781,3.671,18.089-0.051
						C279.923,130.306,274.13,118.733,273.098,108.658z"/>
					
						<linearGradient id="SVGID_00000090295884878094973890000004137346085982775956_" gradientUnits="userSpaceOnUse" x1="261.1564" y1="204.6314" x2="261.1564" y2="128.8449">
						<stop  offset="0" style="stop-color:#FF7867"/>
						<stop  offset="1" style="stop-color:#FFCA46"/>
					</linearGradient>
					<path style="fill:url(#SVGID_00000090295884878094973890000004137346085982775956_);" d="M280.034,132.806
						c-6.108-3.665-17.591-4.642-17.591-4.642l-1.678-0.611l-1.303,0.611c0,0-11.483,0.977-17.591,4.642
						c-6.108,3.665-19.472,23.543-17.998,30.174c1.792,8.063,17.998,17.102,17.998,17.102h16.175h5.814h16.174
						c0,0,13.682-11.727,17.835-17.102C302.023,157.605,286.142,136.471,280.034,132.806z"/>
					<circle style="fill:#FFA683;" cx="250.614" cy="115.716" r="2.493"/>
					<path style="fill:#FFA683;" d="M272.068,115.716c0-1.377-1.116-2.493-2.493-2.493c-1.377,0-2.493,1.116-2.493,2.493
						s1.116,2.493,2.493,2.493C270.952,118.21,272.068,117.093,272.068,115.716z"/>
					<path style="fill:#F78B6B;" d="M263.033,131.437L263.033,131.437c-1.704,0.943-3.773,0.943-5.477,0l0,0
						c-0.988-0.547-1.602-1.587-1.602-2.717v-5.095h8.68v5.095C264.635,129.85,264.021,130.89,263.033,131.437z"/>
					<path style="fill:#FFA683;" d="M270.062,113.469v3.008c0,5.947-4.396,10.769-9.819,10.769c-5.423,0-9.819-4.821-9.819-10.769
						v-3.193c0,0,9.228-2.105,11.065-5.121C261.489,108.164,267.421,113.398,270.062,113.469z"/>
					<path style="fill:#C8D7DB;" d="M279.377,148.531h-35.157c-2.28,0-4.018,2.041-3.654,4.291l3.539,21.934
						c0.351,2.178,2.231,3.778,4.437,3.778h26.514c2.206,0,4.085-1.601,4.437-3.778l3.539-21.934
						C283.394,150.572,281.656,148.531,279.377,148.531z"/>
					<circle style="fill:#FFFFFF;" cx="261.437" cy="161.209" r="3.604"/>
					
						<linearGradient id="SVGID_00000070119367408596194670000003894436756488735649_" gradientUnits="userSpaceOnUse" x1="232.3314" y1="201.0123" x2="302.0017" y2="201.0123">
						<stop  offset="0.0529" style="stop-color:#6D1FCE"/>
						<stop  offset="1" style="stop-color:#4D1C8C"/>
					</linearGradient>
					<path style="fill-rule:evenodd;clip-rule:evenodd;fill:url(#SVGID_00000070119367408596194670000003894436756488735649_);" d="
						M234.264,183.472c1.407-2.764,3.629-5.024,6.26-6.666c8.503-5.305,33.905-19.826,42.572-9.825
						c10.473,12.084,18.906,69.566,18.906,69.566l-6.706,1.928l-21.867-48.937c0,0-14.469,9.792-25.6,11.815
						C236.013,203.501,228.616,194.567,234.264,183.472z"/>
					
						<linearGradient id="SVGID_00000039108091280664033000000006613605202315830974_" gradientUnits="userSpaceOnUse" x1="254.0867" y1="218.2923" x2="276.9769" y2="218.2923">
						<stop  offset="0.0529" style="stop-color:#6D1FCE"/>
						<stop  offset="1" style="stop-color:#4D1C8C"/>
					</linearGradient>
					<path style="fill-rule:evenodd;clip-rule:evenodd;fill:url(#SVGID_00000039108091280664033000000006613605202315830974_);" d="
						M276.977,194.393c0-7.662-5.124-13.874-11.445-13.874s-11.445,6.212-11.445,13.874l7.763,61.673l7.059-0.269L276.977,194.393z"
						/>
				</g>
				<g>
					
						<linearGradient id="SVGID_00000069390042288255617520000016472619609729592754_" gradientUnits="userSpaceOnUse" x1="336.7488" y1="131.2743" x2="283.7295" y2="78.2549">
						<stop  offset="0" style="stop-color:#D028BB"/>
						<stop  offset="1" style="stop-color:#974EF4"/>
					</linearGradient>
					<path style="fill:url(#SVGID_00000069390042288255617520000016472619609729592754_);" d="M292.698,118.625
						c-5.308-4.813-8.642-11.763-8.642-19.493c0-14.529,11.778-26.307,26.307-26.307c14.529,0,26.307,11.778,26.307,26.307
						c0,14.529-11.778,26.307-26.307,26.307c-3.478,0-6.796-0.681-9.835-1.908l-9.249,5.233L292.698,118.625z"/>
					<path style="fill:#FFFFFF;" d="M322.483,94.646l0.317-3.495h-2.907l0.44-4.384l-3.641,0.002l-0.44,4.381h-9.404l0.44-4.384
						l-3.641,0.002l-0.44,4.381h-2.939l-0.317,3.495h2.905l-0.859,6.858h-2.686l-0.401,3.479h2.907l-0.44,4.384l3.641-0.002
						l0.44-4.381h9.404l-0.44,4.384l3.641-0.002l0.44-4.381h2.939l0.317-3.495h-2.905l0.687-6.841H322.483z M315.213,101.488h-9.404
						l0.688-6.841h9.404L315.213,101.488z"/>
				</g>
			</g>
		</g>
		
			<ellipse transform="matrix(0.917 -0.399 0.399 0.917 -25.3958 71.5051)" style="fill:#CCCFF2;" cx="159.075" cy="96.759" rx="38.551" ry="25.976"/>
		<ellipse style="fill:#E1E2FD;" cx="401.986" cy="153.824" rx="17.824" ry="16.995"/>
		<circle style="fill:#CCCFF2;" cx="443.438" cy="136.414" r="8.705"/>
		<ellipse style="fill:#E1E2FD;" cx="61.926" cy="261.053" rx="22.833" ry="25.631"/>
	</g>
</g>
<g id="DESIGNED_BY_FREEPIK">
	<g>
		<g id="XMLID_1_">
			<g id="XMLID_20_">
				<path id="XMLID_28_" style="fill:#1D262D;" d="M260.104,465.465c-0.432,0.443-0.803,0.931-1.108,1.453l-0.465-0.241
					c-0.067-0.298-0.349-0.503-0.659-0.466c-0.331,0.039-0.568,0.339-0.529,0.67c0.039,0.331,0.339,0.568,0.67,0.529
					c0.066-0.008,0.127-0.026,0.184-0.052l0.451,0.234c-0.251,0.554-0.433,1.139-0.539,1.744l0.747,0.132
					c0.23-1.306,0.85-2.507,1.792-3.473L260.104,465.465z"/>
				<path id="XMLID_27_" style="fill:#1D262D;" d="M265.592,463.163c-0.171,0-0.341,0.006-0.51,0.017l-0.074-0.626
					c0.188-0.149,0.296-0.389,0.266-0.645c-0.046-0.393-0.402-0.674-0.795-0.628c-0.393,0.046-0.674,0.402-0.628,0.795
					c0.03,0.254,0.189,0.461,0.404,0.564l0.074,0.624c-0.714,0.116-1.403,0.332-2.06,0.646l0.327,0.684
					c0.934-0.447,1.942-0.673,2.995-0.673c0.496,0,0.993,0.053,1.475,0.158l0.161-0.741
					C266.692,463.222,266.142,463.163,265.592,463.163z"/>
				<path id="XMLID_26_" style="fill:#1D262D;" d="M272.194,465.711c0.331-0.04,0.566-0.341,0.526-0.672
					c-0.04-0.331-0.341-0.566-0.672-0.526c-0.309,0.038-0.535,0.304-0.53,0.609l-0.416,0.363c-0.418-0.43-0.889-0.813-1.408-1.139
					l-0.404,0.641c1.134,0.715,2.021,1.726,2.563,2.925l0.69-0.313c-0.251-0.554-0.567-1.072-0.942-1.545l0.402-0.351
					C272.065,465.716,272.129,465.719,272.194,465.711z"/>
				<path id="XMLID_25_" style="fill:#1D262D;" d="M265.044,473.372c-0.386,0.023-0.775,0.035-1.157,0.035
					c-0.88,0-1.733-0.061-2.478-0.179c-0.39-0.062-0.846-0.155-1.27-0.292c1.046,1.861,3.069,3.125,5.388,3.125
					c2.855,0,5.262-1.916,5.95-4.504c-0.682,0.449-1.505,0.825-2.459,1.123C267.839,473.047,266.463,473.286,265.044,473.372z"/>
				<path id="XMLID_21_" style="fill:#1D262D;" d="M265.592,464.68c-3.352,0-6.08,2.666-6.08,5.943c0,0.426,0.046,0.849,0.137,1.261
					c0.673,0.483,2.706,0.89,5.348,0.731c2.879-0.173,5.297-0.957,6.672-2.159c-0.006-0.195-0.021-0.39-0.045-0.582
					C271.244,466.913,268.65,464.68,265.592,464.68z M263.432,471.194c-1.02,0-1.85-0.83-1.85-1.85c0-1.02,0.83-1.85,1.85-1.85
					c1.02,0,1.85,0.83,1.85,1.85C265.282,470.365,264.452,471.194,263.432,471.194z M268.17,470.286c-0.75,0-1.36-0.61-1.36-1.36
					s0.61-1.361,1.36-1.361c0.75,0,1.361,0.61,1.361,1.361S268.92,470.286,268.17,470.286z"/>
			</g>
			<path id="XMLID_18_" style="fill:#1D262D;" d="M281.595,466.547c-0.295-0.116-0.805-0.309-1.382-0.237
				c-0.551,0.069-0.844,0.341-0.844,1.007v0.866h2.228v1.717h-2.228v5.455h-1.932v-5.455h-1.34v-1.717h1.34v-0.888
				c0-1.68,0.896-2.783,2.568-2.783c0.643,0,1.157,0.122,1.59,0.308L281.595,466.547z"/>
			<path id="XMLID_16_" style="fill:#1D262D;" d="M286.298,469.879c-0.177-0.03-0.358-0.046-0.526-0.046
				c-0.896,0-1.51,0.548-1.51,1.614v3.908h-1.932v-7.172h1.873v0.785c0.451-0.673,1.14-0.977,2.021-0.977
				c0.414,0,0.848,0.128,1.094,0.337L286.298,469.879z"/>
			<path id="XMLID_13_" style="fill:#1D262D;" d="M293.965,471.757c0,0.222-0.015,0.489-0.037,0.651h-5.085
				c0.207,1.036,0.933,1.488,1.843,1.488c0.622,0,1.295-0.252,1.813-0.688l1.133,1.243c-0.814,0.748-1.85,1.088-3.057,1.088
				c-2.198,0-3.723-1.495-3.723-3.753c0-2.258,1.48-3.797,3.627-3.797C292.544,467.99,293.958,469.522,293.965,471.757z
				 M288.851,471.091h3.175c-0.177-0.918-0.733-1.436-1.562-1.436C289.554,469.655,289.021,470.203,288.851,471.091z"/>
			<path id="XMLID_10_" style="fill:#1D262D;" d="M301.618,471.757c0,0.222-0.015,0.489-0.037,0.651h-5.085
				c0.207,1.036,0.933,1.488,1.843,1.488c0.622,0,1.295-0.252,1.814-0.688l1.132,1.243c-0.814,0.748-1.85,1.088-3.057,1.088
				c-2.198,0-3.723-1.495-3.723-3.753c0-2.258,1.48-3.797,3.627-3.797C300.197,467.99,301.611,469.522,301.618,471.757z
				 M296.504,471.091h3.175c-0.178-0.918-0.733-1.436-1.562-1.436C297.207,469.655,296.674,470.203,296.504,471.091z"/>
			<path id="XMLID_7_" style="fill:#1D262D;" d="M309.964,471.764c0,2.154-1.495,3.775-3.471,3.775
				c-0.962,0-1.643-0.378-2.109-0.933v3.708h-1.924v-10.133h1.887v0.792c0.466-0.585,1.155-0.984,2.139-0.984
				C308.469,467.99,309.964,469.61,309.964,471.764z M304.287,471.764c0,1.132,0.748,1.976,1.843,1.976
				c1.14,0,1.85-0.881,1.85-1.976c0-1.095-0.71-1.976-1.85-1.976C305.035,469.788,304.287,470.632,304.287,471.764z"/>
			<path id="XMLID_4_" style="fill:#1D262D;" d="M313.068,465.836c0,0.696-0.54,1.229-1.236,1.229c-0.696,0-1.229-0.533-1.229-1.229
				c0-0.696,0.533-1.243,1.229-1.243C312.527,464.592,313.068,465.14,313.068,465.836z M312.809,475.354h-1.932v-7.172h1.932
				V475.354z"/>
			<path id="XMLID_2_" style="fill:#1D262D;" d="M316.032,470.736l2.701-2.554h2.368l-3.479,3.375l3.501,3.797h-2.376l-2.716-2.901
				v2.901H314.1v-10.658h1.932V470.736z"/>
		</g>
		<g>
			<path style="fill:#1D262D;" d="M184.412,475.289v-1.055c-0.527,0.718-1.391,1.23-2.387,1.23c-1.846,0-3.149-1.406-3.149-3.706
				c0-2.256,1.289-3.721,3.149-3.721c0.952,0,1.816,0.469,2.387,1.245v-3.765h1.099v9.77H184.412z M184.412,473.37v-3.208
				c-0.395-0.615-1.245-1.143-2.124-1.143c-1.421,0-2.27,1.172-2.27,2.739c0,1.567,0.85,2.724,2.27,2.724
				C183.168,474.483,184.017,473.986,184.412,473.37z"/>
			<path style="fill:#1D262D;" d="M186.932,471.744c0-2.051,1.465-3.706,3.486-3.706c2.139,0,3.398,1.67,3.398,3.794v0.279h-5.727
				c0.088,1.333,1.025,2.446,2.549,2.446c0.805,0,1.626-0.322,2.182-0.894l0.527,0.718c-0.703,0.703-1.655,1.084-2.812,1.084
				C188.44,475.465,186.932,473.956,186.932,471.744z M190.403,468.947c-1.509,0-2.256,1.274-2.314,2.358h4.643
				C192.718,470.25,192.015,468.947,190.403,468.947z"/>
			<path style="fill:#1D262D;" d="M194.607,474.351l0.571-0.791c0.469,0.542,1.362,1.011,2.329,1.011c1.084,0,1.67-0.513,1.67-1.216
				c0-1.714-4.38-0.659-4.38-3.281c0-1.098,0.952-2.036,2.636-2.036c1.201,0,2.051,0.454,2.622,1.026l-0.513,0.762
				c-0.424-0.513-1.201-0.894-2.109-0.894c-0.967,0-1.567,0.483-1.567,1.113c0,1.552,4.38,0.527,4.38,3.281
				c0,1.187-0.952,2.138-2.783,2.138C196.306,475.465,195.325,475.113,194.607,474.351z"/>
			<path style="fill:#1D262D;" d="M201.477,466.471c0-0.41,0.337-0.747,0.732-0.747c0.41,0,0.747,0.337,0.747,0.747
				c0,0.41-0.337,0.732-0.747,0.732C201.814,467.203,201.477,466.881,201.477,466.471z M201.667,475.289v-7.075h1.099v7.075H201.667
				z"/>
			<path style="fill:#1D262D;" d="M204.582,477.105l0.556-0.82c0.586,0.703,1.289,0.967,2.3,0.967c1.172,0,2.27-0.571,2.27-2.124
				v-1.011c-0.513,0.718-1.377,1.26-2.373,1.26c-1.845,0-3.149-1.377-3.149-3.662c0-2.27,1.289-3.677,3.149-3.677
				c0.952,0,1.802,0.469,2.373,1.245v-1.069h1.098v6.87c0,2.344-1.641,3.076-3.369,3.076
				C206.237,478.16,205.417,477.926,204.582,477.105z M209.709,473.253v-3.091c-0.381-0.615-1.23-1.143-2.109-1.143
				c-1.421,0-2.27,1.128-2.27,2.695c0,1.553,0.849,2.695,2.27,2.695C208.478,474.41,209.328,473.868,209.709,473.253z"/>
			<path style="fill:#1D262D;" d="M217.413,475.289v-4.629c0-1.245-0.63-1.641-1.582-1.641c-0.865,0-1.685,0.527-2.095,1.099v5.17
				h-1.099v-7.075h1.099v1.025c0.498-0.586,1.464-1.201,2.519-1.201c1.48,0,2.256,0.747,2.256,2.285v4.966H217.413z"/>
			<path style="fill:#1D262D;" d="M219.932,471.744c0-2.051,1.465-3.706,3.486-3.706c2.139,0,3.398,1.67,3.398,3.794v0.279h-5.727
				c0.088,1.333,1.025,2.446,2.549,2.446c0.806,0,1.626-0.322,2.183-0.894l0.527,0.718c-0.703,0.703-1.655,1.084-2.812,1.084
				C221.441,475.465,219.932,473.956,219.932,471.744z M223.404,468.947c-1.509,0-2.256,1.274-2.314,2.358h4.643
				C225.718,470.25,225.015,468.947,223.404,468.947z"/>
			<path style="fill:#1D262D;" d="M233.35,475.289v-1.055c-0.527,0.718-1.392,1.23-2.388,1.23c-1.846,0-3.149-1.406-3.149-3.706
				c0-2.256,1.289-3.721,3.149-3.721c0.952,0,1.817,0.469,2.388,1.245v-3.765h1.098v9.77H233.35z M233.35,473.37v-3.208
				c-0.396-0.615-1.245-1.143-2.124-1.143c-1.421,0-2.27,1.172-2.27,2.739c0,1.567,0.849,2.724,2.27,2.724
				C232.105,474.483,232.954,473.986,233.35,473.37z"/>
			<path style="fill:#1D262D;" d="M239.692,475.289v-9.77h1.098v3.765c0.572-0.776,1.421-1.245,2.388-1.245
				c1.845,0,3.149,1.465,3.149,3.721c0,2.299-1.304,3.706-3.149,3.706c-0.996,0-1.86-0.513-2.388-1.23v1.055H239.692z
				 M242.9,474.483c1.436,0,2.285-1.157,2.285-2.724c0-1.568-0.85-2.739-2.285-2.739c-0.864,0-1.728,0.527-2.109,1.143v3.208
				C241.171,473.986,242.036,474.483,242.9,474.483z"/>
			<path style="fill:#1D262D;" d="M247.528,477.061c0.161,0.073,0.425,0.117,0.601,0.117c0.483,0,0.805-0.161,1.055-0.747
				l0.469-1.069l-2.959-7.148h1.187l2.358,5.8l2.344-5.8h1.201l-3.545,8.51c-0.425,1.025-1.143,1.421-2.08,1.435
				c-0.234,0-0.601-0.044-0.805-0.103L247.528,477.061z"/>
		</g>
	</g>
</g>
</svg>
